<svg width="24" height="24" viewBox="0 0 24 24" fill="none" xmlns="http://www.w3.org/2000/svg">
<g id="Group">
<path id="Path" d="M5.9975 13.1535C4.15973 13.9778 2.99625 15.1703 2.99625 16.5019C2.99625 18.9879 7.02693 21.0037 12 21.0037C16.9731 21.0037 21.0037 18.9879 21.0037 16.5019C21.0037 15.1703 19.8403 13.9778 18.0025 13.1535" stroke="#4400DD" stroke-width="1.5" stroke-linecap="round" stroke-linejoin="round"/>
<path id="Path_2" d="M15.6535 17.0021C14.5694 17.7075 13.2923 18.0572 12 18.0025C10.7077 18.0572 9.43059 17.7075 8.34648 17.0021" stroke="#4400DD" stroke-width="1.5" stroke-linecap="round" stroke-linejoin="round"/>
<path id="Path_3" d="M14.2009 3.90962C15.0928 4.80144 15.3596 6.14269 14.8769 7.30793C14.3943 8.47318 13.2572 9.23295 11.996 9.23295C10.7348 9.23295 9.5977 8.47318 9.11505 7.30793C8.63241 6.14269 8.89922 4.80144 9.79108 3.90962C10.3757 3.32462 11.1689 2.99593 11.996 2.99593C12.8231 2.99593 13.6163 3.32462 14.2009 3.90962" stroke="#4400DD" stroke-width="1.5" stroke-linecap="round" stroke-linejoin="round"/>
<path id="Path_4" d="M12 9.23084V15.0012" stroke="#4400DD" stroke-width="1.5" stroke-linecap="round" stroke-linejoin="round"/>
</g>
</svg>
