<svg width="312" height="24" viewBox="0 0 312 24" fill="none" xmlns="http://www.w3.org/2000/svg">
<path fill-rule="evenodd" clip-rule="evenodd" d="M15.9455 23L10.396 15.0901L3.44886 23H0.509766L9.09209 13.2311L0.509766 1H8.05571L13.286 8.45502L19.8393 1H22.7784L14.5943 10.3165L23.4914 23H15.9455ZM19.2185 20.77H17.2398L4.71811 3.23H6.6971L11.7121 10.2532L12.5793 11.4719L19.2185 20.77Z" fill="#A4A7AE"/>
<g clip-path="url(#clip0_1_287)">
<path d="M70.2234 0H49.7719C48.7922 0 48 0.773438 48 1.72969V22.2656C48 23.2219 48.7922 24 49.7719 24H70.2234C71.2031 24 72 23.2219 72 22.2703V1.72969C72 0.773438 71.2031 0 70.2234 0ZM55.1203 20.4516H51.5578V8.99531H55.1203V20.4516ZM53.3391 7.43438C52.1953 7.43438 51.2719 6.51094 51.2719 5.37187C51.2719 4.23281 52.1953 3.30937 53.3391 3.30937C54.4781 3.30937 55.4016 4.23281 55.4016 5.37187C55.4016 6.50625 54.4781 7.43438 53.3391 7.43438ZM68.4516 20.4516H64.8937V14.8828C64.8937 13.5562 64.8703 11.8453 63.0422 11.8453C61.1906 11.8453 60.9094 13.2937 60.9094 14.7891V20.4516H57.3563V8.99531H60.7687V10.5609H60.8156C61.2891 9.66094 62.4516 8.70938 64.1813 8.70938C67.7859 8.70938 68.4516 11.0813 68.4516 14.1656V20.4516Z" fill="#A4A7AE"/>
</g>
<g clip-path="url(#clip1_1_287)">
<path d="M120 12C120 5.37258 114.627 0 108 0C101.373 0 96 5.37258 96 12C96 17.9895 100.388 22.954 106.125 23.8542V15.4688H103.078V12H106.125V9.35625C106.125 6.34875 107.917 4.6875 110.658 4.6875C111.97 4.6875 113.344 4.92188 113.344 4.92188V7.875H111.831C110.34 7.875 109.875 8.80008 109.875 9.75V12H113.203L112.671 15.4688H109.875V23.8542C115.612 22.954 120 17.9895 120 12Z" fill="#A4A7AE"/>
</g>
<g clip-path="url(#clip2_1_287)">
<path fill-rule="evenodd" clip-rule="evenodd" d="M156 0C149.372 0 144 5.3808 144 12.0204C144 17.3304 147.438 21.8364 152.207 23.4252C152.807 23.5356 153.025 23.1648 153.025 22.8456C153.025 22.5612 153.016 21.804 153.01 20.802C149.671 21.528 148.967 19.1904 148.967 19.1904C148.422 17.8008 147.635 17.4312 147.635 17.4312C146.545 16.6872 147.718 16.7016 147.718 16.7016C148.921 16.7856 149.555 17.94 149.555 17.94C150.625 19.776 152.364 19.2456 153.047 18.9384C153.157 18.162 153.467 17.6328 153.81 17.3328C151.146 17.0292 148.344 15.9972 148.344 11.3916C148.344 10.08 148.812 9.006 149.579 8.166C149.455 7.8624 149.044 6.6396 149.696 4.986C149.696 4.986 150.704 4.662 152.996 6.2172C153.975 5.95022 154.985 5.81423 156 5.8128C157.02 5.8176 158.046 5.9508 159.005 6.2172C161.296 4.662 162.301 4.9848 162.301 4.9848C162.956 6.6396 162.544 7.8624 162.421 8.166C163.189 9.006 163.655 10.08 163.655 11.3916C163.655 16.0092 160.848 17.0256 158.176 17.3232C158.606 17.694 158.989 18.4272 158.989 19.5492C158.989 21.1548 158.975 22.452 158.975 22.8456C158.975 23.1672 159.191 23.5416 159.8 23.424C162.19 22.6225 164.267 21.0904 165.739 19.0441C167.21 16.9977 168.001 14.5408 168 12.0204C168 5.3808 162.626 0 156 0Z" fill="#A4A7AE"/>
</g>
<path d="M209.77 10.0969C210.319 8.56875 211.898 4.14844 211.898 2.73281C211.898 1.48594 211.163 0.440625 209.85 0.440625C207.759 0.440625 205.884 6.61406 205.298 8.08594C204.844 6.75 202.716 0 200.841 0C199.383 0 198.698 1.07344 198.698 2.42344C198.698 4.07812 200.302 8.36719 200.883 10.0172C200.588 9.90938 200.269 9.81562 199.945 9.81562C198.848 9.81562 197.681 11.1797 197.681 12.2812C197.681 12.6984 197.911 13.2844 198.056 13.6734C196.327 14.1422 195.661 15.2953 195.661 17.0344C195.656 20.4187 198.863 24 203.372 24C208.903 24 212.344 19.8469 212.344 14.4891C212.344 12.4688 212.02 10.6453 209.77 10.0969ZM208.111 5.0625C208.298 4.48594 209.1 2.04844 209.85 2.04844C210.253 2.04844 210.361 2.46563 210.361 2.79844C210.361 3.69375 208.552 8.63906 208.153 9.73594L206.559 9.45469L208.111 5.0625ZM200.17 2.26406C200.17 1.70625 200.85 0.121875 202.341 4.47188L203.963 9.17344C203.231 9.1125 202.664 9.03281 202.303 9.23906C201.792 7.88906 200.17 3.62812 200.17 2.26406ZM200.063 11.4375C201.436 11.4375 203.208 15.8719 203.208 16.4719C203.208 16.7109 202.978 17.0062 202.711 17.0062C201.731 17.0062 199.106 13.4016 199.106 12.4266C199.111 12.0656 199.702 11.4375 200.063 11.4375ZM208.702 20.1703C207.338 21.6703 205.594 22.4484 203.559 22.4484C200.775 22.4484 198.577 20.9203 197.517 18.3094C196.716 16.275 197.695 15.1078 198.483 15.1078C199.017 15.1078 201.028 17.9344 201.028 18.5344C201.028 18.7641 200.667 18.9234 200.48 18.9234C199.725 18.9234 199.43 18.1969 198.084 16.5141C196.692 17.9062 199.045 20.5875 200.817 20.5875C202.041 20.5875 202.838 19.4531 202.598 18.6188C202.772 18.6188 202.988 18.6328 203.147 18.5906C203.198 19.8609 203.573 21.375 205.102 21.4828C205.102 21.4406 205.195 21.15 205.195 21.1359C205.195 20.3203 204.698 19.6078 204.698 18.7781C204.698 17.4516 205.716 16.1672 206.747 15.4172C207.122 15.1359 207.577 14.9625 208.017 14.8031C208.472 14.6297 208.955 14.4281 209.302 14.0812C209.25 13.5562 209.034 13.0922 208.509 13.0922C207.211 13.0922 202.856 13.2797 202.856 11.2313C202.856 10.9172 202.861 10.6172 203.672 10.6172C205.186 10.6172 209.03 10.9922 210.155 11.9813C211.003 12.7359 211.294 17.2875 208.702 20.1703ZM204.08 14.2641C204.534 14.4094 205.003 14.4516 205.472 14.5453C205.125 14.7984 204.816 15.1078 204.52 15.4406C204.389 15.0422 204.23 14.6531 204.08 14.2641Z" fill="#A4A7AE"/>
<path fill-rule="evenodd" clip-rule="evenodd" d="M252 0C245.375 0 240 5.37527 240 12C240 18.6248 245.375 24 252 24C258.612 24 264 18.6248 264 12C264 5.37527 258.612 0 252 0ZM259.926 5.53145C261.358 7.27549 262.217 9.50107 262.243 11.9089C261.905 11.8439 258.521 11.154 255.111 11.5835C255.033 11.4143 254.967 11.2321 254.889 11.0499C254.681 10.5554 254.447 10.0477 254.213 9.56618C257.987 8.0304 259.705 5.81779 259.926 5.53145ZM252 1.77007C254.603 1.77007 256.985 2.74621 258.794 4.34707C258.612 4.60738 257.063 6.67679 253.419 8.04338C251.74 4.95878 249.879 2.43384 249.592 2.04338C250.36 1.86117 251.167 1.77007 252 1.77007ZM247.64 2.73319C247.913 3.09761 249.735 5.63558 251.44 8.65508C246.651 9.9306 242.421 9.90458 241.965 9.90458C242.629 6.72885 244.777 4.08676 247.64 2.73319ZM241.744 12.0131C241.744 11.9089 241.744 11.8048 241.744 11.7007C242.187 11.7136 247.158 11.7787 252.273 10.243C252.573 10.8156 252.846 11.4013 253.106 11.9869C252.976 12.026 252.833 12.0651 252.703 12.1041C247.419 13.8091 244.607 18.4685 244.373 18.859C242.746 17.0499 241.744 14.6421 241.744 12.0131ZM252 22.256C249.631 22.256 247.445 21.449 245.714 20.0954C245.896 19.718 247.978 15.7094 253.757 13.692C253.783 13.679 253.796 13.679 253.822 13.666C255.267 17.4013 255.853 20.5379 256.009 21.436C254.772 21.9696 253.419 22.256 252 22.256ZM257.714 20.4989C257.61 19.8742 257.063 16.8807 255.722 13.1974C258.937 12.6898 261.748 13.5228 262.1 13.6399C261.657 16.4902 260.017 18.9501 257.714 20.4989Z" fill="#A4A7AE"/>
<g clip-path="url(#clip3_1_287)">
<path opacity="0.2" d="M288.364 13.6945L288.422 4.96865C288.432 3.38902 289.537 2.03484 291.062 1.73302L299.489 0.0624719C301.514 -0.338983 303.393 1.24574 303.38 3.34247L303.322 12.0697C303.311 13.6487 302.206 15.0021 300.681 15.3047L292.254 16.9752C290.229 17.3767 288.35 15.7919 288.364 13.6945Z" fill="#A4A7AE"/>
<path opacity="0.5" d="M292.492 17.1759L292.551 8.44867C292.56 6.87049 293.665 5.51704 295.191 5.21449L303.617 3.54467C305.642 3.14322 307.521 4.72722 307.508 6.82467L307.449 15.5519C307.439 17.1309 306.335 18.4843 304.809 18.7869L296.383 20.4574C294.358 20.8581 292.479 19.2741 292.492 17.1774V17.1759Z" fill="#A4A7AE"/>
<path opacity="0.8" d="M296.621 20.6575L296.679 11.9302C296.689 10.3506 297.794 8.99784 299.319 8.6953L307.746 7.02475C309.771 6.6233 311.65 8.20802 311.636 10.3048L311.578 19.032C311.568 20.6117 310.463 21.9651 308.938 22.2669L300.511 23.9375C298.487 24.3389 296.607 22.7542 296.62 20.6575H296.621Z" fill="#A4A7AE"/>
</g>
<defs>
<clipPath id="clip0_1_287">
<rect width="24" height="24" fill="white" transform="translate(48)"/>
</clipPath>
<clipPath id="clip1_1_287">
<rect width="24" height="24" fill="white" transform="translate(96)"/>
</clipPath>
<clipPath id="clip2_1_287">
<rect width="24" height="24" fill="white" transform="translate(144)"/>
</clipPath>
<clipPath id="clip3_1_287">
<rect width="24" height="24" fill="white" transform="translate(288)"/>
</clipPath>
</defs>
</svg>
